<?xml version="1.0" encoding="UTF-8" standalone="no"?>
<svg
   version="1.1"
   id="svg2"
   xmlspace="preserve"
   width="373.17334"
   height="251.26666"
   viewBox="0 0 373.17334 251.26666"
   sodipodidocname="we.eps"><metadata
     id="metadata8"><rdfRDF><ccWork
         rdfabout=""><dcformat>image/svg+xml</dcformat><dctype
           rdfresource="http://purl.org/dc/dcmitype/StillImage" /></ccWork></rdfRDF></metadata><defs
     id="defs6" /><sodipodinamedview
     pagecolor="#ffffff"
     bordercolor="#666666"
     borderopacity="1"
     objecttolerance="10"
     gridtolerance="10"
     guidetolerance="10"
     inkscapepageopacity="0"
     inkscapepageshadow="2"
     inkscapewindow-width="640"
     inkscapewindow-height="480"
     id="namedview4" /><g
     id="g10"
     inkscapegroupmode="layer"
     inkscapelabel="ink_ext_XXXXXX"
     transform="matrix(1.3333333,0,0,-1.3333333,0,251.26667)"><g
       id="g12"
       transform="scale(0.1)"><path
         d="m 933.531,1506.27 c 0,0 -4.043,19.72 0,32.82 0,0 43.328,9.82 48.242,62.19 4.911,52.38 0,65.48 0,65.48 0,0 81.837,4.91 99.847,18 17.99,13.1 -63.84,0 -93.304,0 0,0 4.911,55.65 -6.543,76.93 -11.457,21.28 -52.375,29.46 -88.39,18 -36.004,-11.46 -60.555,-36.01 -60.555,-99.84 0,0 -72.023,1.64 -99.844,-4.91 -27.824,-6.55 98.204,-14.73 98.204,-14.73 0,0 -16.368,-58.93 8.183,-83.48 0,0 11.465,-45.99 1.641,-70.46 0,0 -13.098,1.72 -14.739,-16.29 0,0 -60.398,-22.91 -97.304,-27.82 -36.903,-4.91 -68.008,-19.64 -113.836,-49.11 -45.832,-29.45 -93.293,-50.73 -135.852,-68.74 -42.558,-18.01 -90.019,-45.83 -122.754,-57.29 -32.734,-11.45 -108.027,4.92 -109.668,-16.36 -1.629,-21.28 0,-60.56 21.282,-68.75 21.277,-8.18 130.945,1.64 173.496,11.46 42.558,9.82 180.047,44.19 180.047,44.19 0,0 8.183,-99.84 29.464,-150.58 21.278,-50.74 50.731,-112.265 73.653,-138.789 0,0 83.476,-4.574 129.304,0 45.833,4.575 121.125,12.758 142.395,7.848 21.28,-4.906 42.56,-7.848 42.56,-7.848 0,0 -4.91,99.509 -16.37,133.879 -11.45,34.37 6.54,57.29 9.82,70.38 3.28,13.1 13.1,55.65 13.1,76.93 0,0 86.75,-104.75 106.39,-117.85 19.64,-13.09 121.12,8.18 150.57,14.73 29.47,6.55 86.76,34.38 86.76,34.38 l -26.19,68.74 c 0,0 -22.92,3.27 -40.92,-3.27 -18.01,-6.55 -112.94,-8.19 -112.94,-8.19 0,0 -54.01,99.85 -80.2,129.31 -26.18,29.46 -60.56,68.74 -93.29,80.2 -32.74,11.46 -75.298,31.1 -83.481,34.37 -8.184,3.27 -3.184,22.75 -18.778,24.47"
         style="fill:#ffffff;fill-opacity:1;fill-rule:nonzero;stroke:none"
         id="path14" /><path
         d="m 726.605,971.852 c 11.797,-0.594 85.586,-4.082 127.129,0.07 l 11.036,1.109 c 47.421,4.785 112.355,11.321 132.57,6.66 15.11,-3.48 30.37,-5.988 37.72,-7.121 -1.13,19.868 -6.15,98.98 -15.92,128.32 -9.25,27.74 -0.18,48.55 5.82,62.31 1.73,3.98 3.23,7.43 3.92,10.17 0.53,2.11 12.98,52.22 12.98,76.01 0,1.58 1,2.99 2.48,3.53 1.45,0.52 3.14,0.09 4.16,-1.14 0.86,-1.04 86.61,-104.48 105.58,-117.12 14.59,-9.72 88.67,2.15 147.68,15.28 24.82,5.51 70.56,26.78 82.83,32.6 l -24.15,63.38 c -5.96,0.59 -23.17,1.69 -36.94,-3.33 -18.38,-6.69 -110.25,-8.34 -114.15,-8.41 -0.03,0 -0.05,0 -0.07,0 -1.37,0 -2.64,0.76 -3.3,1.97 -0.54,0.99 -54.1,99.79 -79.71,128.6 l -1.78,2.01 c -26.23,29.52 -58.87,66.26 -89.94,77.14 -24.72,8.65 -55.425,22.13 -71.917,29.36 -5.567,2.45 -9.699,4.26 -11.719,5.07 -5.07,2.02 -6.601,7.49 -7.949,12.31 -1.953,6.92 -3.477,11.21 -9.844,11.92 -1.621,0.17 -2.941,1.38 -3.262,2.97 -0.175,0.84 -4.191,20.82 0.086,34.68 0.391,1.27 1.446,2.25 2.746,2.55 1.661,0.38 40.762,9.98 45.352,58.88 4.687,50.07 0.242,63.73 0.203,63.86 -0.379,1.1 -0.234,2.35 0.422,3.33 0.645,0.97 1.707,1.61 2.879,1.68 21.643,1.3 79.393,6.67 96.143,16.19 -9.4,0.75 -32.46,-1.35 -48.59,-2.83 -15.93,-1.47 -30.971,-2.85 -40.784,-2.85 -1.054,0 -2.05,0.44 -2.765,1.21 -0.711,0.78 -1.063,1.82 -0.977,2.87 0.051,0.54 4.688,54.78 -6.101,74.82 -10.5,19.52 -49.719,27.09 -83.957,16.21 -28.653,-9.12 -57.938,-27.69 -57.938,-96.27 0,-1.01 -0.41,-1.97 -1.133,-2.68 -0.715,-0.71 -1.808,-1.1 -2.707,-1.07 -0.652,0.02 -60.468,1.31 -91.258,-3.38 17.598,-3.01 55.137,-6.51 89.95,-8.77 1.125,-0.07 2.16,-0.65 2.812,-1.57 0.656,-0.92 0.86,-2.09 0.559,-3.17 -0.156,-0.57 -15.488,-57.12 7.226,-79.83 0.477,-0.48 0.821,-1.08 0.985,-1.74 0.48,-1.93 11.64,-47.46 1.476,-72.76 -0.636,-1.59 -2.199,-2.58 -3.965,-2.33 -0.078,0.01 -3.222,0.32 -5.968,-1.95 -2.539,-2.08 -4.071,-5.77 -4.551,-10.96 -0.125,-1.43 -1.055,-2.66 -2.402,-3.16 -2.481,-0.94 -61.231,-23.13 -98.133,-28.03 -34.258,-4.56 -63.653,-17.27 -112.305,-48.55 -45.332,-29.13 -92.355,-50.4 -136.418,-69.04 -19.051,-8.06 -39.09,-18.1 -58.457,-27.8 -23.809,-11.93 -46.297,-23.19 -64.519,-29.58 -14.563,-5.09 -36.27,-4.89 -57.258,-4.76 -23.106,0.18 -49.239,0.37 -49.91,-8.35 -1.985,-25.85 1.777,-58.38 18.886,-64.96 20.418,-7.86 129.688,2.02 171.309,11.61 42.031,9.71 178.601,43.84 179.98,44.18 1.094,0.25 2.207,0.05 3.094,-0.59 0.891,-0.64 1.457,-1.65 1.555,-2.74 0.078,-0.99 8.379,-99.83 29.179,-149.44 12.891,-30.72 45.45,-104.92 72,-136.578 z m 73.723,-9.426 c -38.156,0 -75.176,1.992 -75.734,2.019 -1.016,0.059 -1.961,0.524 -2.637,1.293 -27.43,31.75 -61.074,108.332 -74.266,139.792 -18.976,45.24 -27.5,127.25 -29.355,147.33 -23.555,-5.88 -137.969,-34.4 -175.859,-43.14 -39.239,-9.06 -152.512,-20.2 -175.684,-11.31 -27.023,10.39 -24.465,62.25 -23.672,72.54 1.211,15.7 27.227,15.51 57.449,15.27 20.344,-0.13 41.399,-0.32 54.719,4.34 17.774,6.23 40.047,17.39 63.641,29.21 19.472,9.75 39.621,19.84 58.886,28 43.762,18.51 90.442,39.61 135.286,68.44 49.695,31.95 79.89,44.95 115.371,49.67 32.207,4.28 83.379,22.76 94.355,26.82 0.957,6.16 3.348,10.81 7.129,13.83 2.988,2.39 6.141,3.2 8.406,3.45 7.071,21.59 -0.918,58.45 -2.402,64.88 -21.063,22.31 -12.82,67.48 -9.5,81.9 -100.449,6.68 -100.918,12.18 -101.223,15.83 -0.359,4.29 4.719,5.49 6.887,6 24.59,5.79 81.582,5.35 96.98,5.08 0.852,55.22 20.43,86.01 63.145,99.6 38,12.09 80.527,3.03 92.824,-19.81 10.106,-18.78 8.203,-61.33 7.293,-74.88 9.513,0.31 22.973,1.55 36.033,2.74 45.22,4.16 56.91,4.39 59.21,-1.71 1.01,-2.67 -0.27,-5.32 -3.79,-7.88 -16.41,-11.94 -79.99,-17.19 -97.468,-18.43 1.222,-7.59 2.617,-25.47 -0.848,-62.37 -4.445,-47.44 -39.621,-61.85 -48.906,-64.85 -2.168,-9.26 -0.645,-21.44 0.175,-26.59 9.356,-2.42 11.766,-10.99 13.407,-16.84 0.968,-3.45 1.886,-6.72 3.527,-7.37 2.051,-0.82 6.258,-2.67 11.934,-5.15 16.406,-7.21 46.939,-20.61 71.389,-29.16 32.91,-11.52 66.27,-49.07 93.06,-79.24 l 1.79,-2.01 c 24.43,-27.49 71.62,-113.34 79.61,-128.01 33.29,0.64 95.99,3.02 109.45,7.92 18.66,6.8 41.74,3.6 42.73,3.46 1.35,-0.19 2.49,-1.11 2.98,-2.38 l 26.19,-68.74 c 0.69,-1.81 -0.12,-3.86 -1.87,-4.7 -2.35,-1.15 -58.04,-28.1 -87.59,-34.67 -39.39,-8.76 -133.23,-27.69 -153.46,-14.19 -17,11.33 -80.74,86.88 -101.06,111.2 -2.33,-26.34 -12.23,-66.16 -12.7,-68.06 -0.84,-3.35 -2.46,-7.05 -4.33,-11.34 -5.88,-13.48 -13.91,-31.94 -5.58,-56.95 11.48,-34.47 16.35,-130.799 16.56,-134.881 0.05,-1.113 -0.39,-2.199 -1.22,-2.949 -0.81,-0.754 -1.89,-1.133 -3.05,-0.953 -0.21,0.027 -21.69,3.015 -42.88,7.91 -19.055,4.41 -85.898,-2.356 -130.137,-6.817 l -11.046,-1.109 c -15.301,-1.527 -34.872,-2.035 -54.149,-2.035"
         style="fill:#231f20;fill-opacity:1;fill-rule:nonzero;stroke:none"
         id="path16" /><path
         d="m 889.105,1458.73 c -0.808,0 -1.601,0.02 -2.363,0.06 -6.758,0.32 -11.387,2 -14.16,5.11 -9.941,11.18 -4.441,24.53 -0.156,30.03 0.683,0.87 1.73,1.4 2.832,1.44 45.195,1.51 55.117,12.93 55.195,13.04 1.172,1.72 3.516,2.13 5.215,0.94 1.699,-1.18 2.121,-3.52 0.937,-5.22 -1.015,-1.47 -11.269,-14.26 -59.179,-16.19 -1.973,-3.25 -5.848,-11.62 0.762,-19.05 0.761,-0.85 2.921,-2.32 8.906,-2.61 18.918,-0.94 55.273,11.41 62.668,18.27 1.511,1.41 3.886,1.33 5.293,-0.2 1.414,-1.51 1.328,-3.89 -0.196,-5.3 -9.152,-8.5 -44.882,-20.32 -65.754,-20.32"
         style="fill:#231f20;fill-opacity:1;fill-rule:nonzero;stroke:none"
         id="path18" /><path
         d="m 875.387,1462.64 c -0.129,0 -0.266,0.01 -0.391,0.02 -1.066,0.12 -26.269,2.99 -51.172,24.48 -1.562,1.36 -1.738,3.73 -0.39,5.29 1.347,1.58 3.711,1.76 5.293,0.39 15.242,-13.15 30.808,-18.83 39.675,-21.17 -1.316,4.38 -1.121,8.49 -0.761,11.07 l -28.809,20.49 c -1.68,1.21 -2.078,3.55 -0.879,5.24 1.211,1.69 3.547,2.08 5.235,0.88 l 30.773,-21.9 c 1.297,-0.93 1.863,-2.57 1.426,-4.11 -0.02,-0.06 -2.266,-8.35 2.879,-14.52 0.976,-1.18 1.144,-2.83 0.429,-4.17 -0.664,-1.24 -1.933,-1.99 -3.308,-1.99"
         style="fill:#231f20;fill-opacity:1;fill-rule:nonzero;stroke:none"
         id="path20" /><path
         d="m 925.719,971.234 c -1.875,0 -3.489,1.391 -3.723,3.293 -3.992,32.633 -18.973,111.913 -32.305,165.233 -14.031,56.15 -20.066,164.16 -18.054,213.85 2.07,51.16 17.918,109.28 18.086,109.86 0.547,2 2.558,3.2 4.609,2.62 1.992,-0.54 3.164,-2.61 2.617,-4.61 -0.156,-0.57 -15.793,-57.88 -17.812,-108.17 -2.004,-49.26 3.953,-156.22 17.84,-211.74 13.605,-54.43 28.359,-132.61 32.461,-166.132 0.253,-2.055 -1.211,-3.926 -3.262,-4.176 -0.156,-0.02 -0.313,-0.028 -0.457,-0.028"
         style="fill:#231f20;fill-opacity:1;fill-rule:nonzero;stroke:none"
         id="path22" /><path
         d="m 891.734,1476.96 c 0,-2.58 -2.089,-4.66 -4.66,-4.66 -2.566,0 -4.656,2.08 -4.656,4.66 0,2.57 2.09,4.65 4.656,4.65 2.571,0 4.66,-2.08 4.66,-4.65"
         style="fill:#231f20;fill-opacity:1;fill-rule:nonzero;stroke:none"
         id="path24" /><path
         d="m 875.375,1426.21 c 0,-2.57 -2.078,-4.66 -4.656,-4.66 -2.571,0 -4.649,2.09 -4.649,4.66 0,2.58 2.078,4.66 4.649,4.66 2.578,0 4.656,-2.08 4.656,-4.66"
         style="fill:#231f20;fill-opacity:1;fill-rule:nonzero;stroke:none"
         id="path26" /><path
         d="m 866.07,1340.36 c 0,-2.57 -2.09,-4.65 -4.66,-4.65 -2.578,0 -4.656,2.08 -4.656,4.65 0,2.57 2.078,4.66 4.656,4.66 2.57,0 4.66,-2.09 4.66,-4.66"
         style="fill:#231f20;fill-opacity:1;fill-rule:nonzero;stroke:none"
         id="path28" /><path
         d="m 866.07,1239.25 c 0,-2.57 -2.09,-4.66 -4.66,-4.66 -2.578,0 -4.656,2.09 -4.656,4.66 0,2.57 2.078,4.65 4.656,4.65 2.57,0 4.66,-2.08 4.66,-4.65"
         style="fill:#231f20;fill-opacity:1;fill-rule:nonzero;stroke:none"
         id="path30" /><path
         d="m 880.035,1152.95 c 0,-2.57 -2.082,-4.66 -4.648,-4.66 -2.578,0 -4.66,2.09 -4.66,4.66 0,2.57 2.082,4.66 4.66,4.66 2.566,0 4.648,-2.09 4.648,-4.66"
         style="fill:#231f20;fill-opacity:1;fill-rule:nonzero;stroke:none"
         id="path32" /><path
         d="m 901.051,1069.07 c 0,-2.57 -2.09,-4.65 -4.66,-4.65 -2.578,0 -4.657,2.08 -4.657,4.65 0,2.58 2.079,4.66 4.657,4.66 2.57,0 4.66,-2.08 4.66,-4.66"
         style="fill:#231f20;fill-opacity:1;fill-rule:nonzero;stroke:none"
         id="path34" /><path
         d="m 911.52,1000.96 c 0,-2.573 -2.09,-4.659 -4.661,-4.659 -2.578,0 -4.656,2.086 -4.656,4.659 0,2.57 2.078,4.65 4.656,4.65 2.571,0 4.661,-2.08 4.661,-4.65"
         style="fill:#231f20;fill-opacity:1;fill-rule:nonzero;stroke:none"
         id="path36" /><path
         d="m 619.723,1323.08 c -1.875,0 -3.496,1.4 -3.723,3.3 -4.766,39.33 15.91,98.58 16.797,101.08 0.683,1.95 2.785,3 4.785,2.29 1.953,-0.69 2.981,-2.83 2.285,-4.78 -0.203,-0.6 -20.976,-60.11 -16.426,-97.69 0.254,-2.06 -1.211,-3.92 -3.269,-4.17 -0.149,-0.02 -0.305,-0.03 -0.449,-0.03"
         style="fill:#231f20;fill-opacity:1;fill-rule:nonzero;stroke:none"
         id="path38" /><path
         d="m 1049.01,1347.86 c -0.23,0 -0.46,0.02 -0.7,0.07 -2.04,0.39 -3.37,2.35 -2.98,4.38 7.27,38.38 0.05,88.03 -0.03,88.53 -0.3,2.04 1.11,3.95 3.15,4.26 2.19,0.28 3.96,-1.12 4.27,-3.16 0.31,-2.08 7.5,-51.38 -0.03,-91.02 -0.34,-1.81 -1.91,-3.06 -3.68,-3.06"
         style="fill:#231f20;fill-opacity:1;fill-rule:nonzero;stroke:none"
         id="path40" /><path
         d="m 726.969,1315.7 c -2.629,-29.15 4.746,-57.64 18.086,-68.85 6.023,-5.07 13.093,-6.43 21.062,-4.01 25.715,7.79 22.551,52.6 21.106,65.33 -18.743,-0.65 -49.2,5.23 -60.254,7.53 z m 31.758,-81.52 c -6.758,0 -13.028,2.33 -18.508,6.93 -18.68,15.7 -23.602,52.26 -20.262,79.58 0.125,1.04 0.691,1.99 1.551,2.6 0.879,0.62 1.965,0.83 2.98,0.6 0.45,-0.1 45.117,-10 65.645,-8.02 1.836,0.23 3.73,-1.19 4.051,-3.14 0.441,-2.7 10.234,-66.12 -25.899,-77.07 -3.262,-0.99 -6.465,-1.48 -9.558,-1.48"
         style="fill:#231f20;fill-opacity:1;fill-rule:nonzero;stroke:none"
         id="path42" /><path
         d="m 831.188,1656.46 c -2.051,0 -3.731,1.65 -3.75,3.71 -0.02,2.07 1.64,3.77 3.71,3.79 0.965,0.01 97.098,1.03 150.243,6.52 1.972,0.27 3.898,-1.28 4.113,-3.34 0.215,-2.06 -1.289,-3.9 -3.352,-4.12 -53.484,-5.53 -149.961,-6.55 -150.925,-6.56 -0.012,0 -0.032,0 -0.039,0"
         style="fill:#231f20;fill-opacity:1;fill-rule:nonzero;stroke:none"
         id="path44" /><path
         d="m 839.371,1572.98 c -0.957,0 -1.914,0.37 -2.648,1.09 -1.465,1.47 -1.473,3.84 -0.008,5.31 0.273,0.27 27.117,27.25 40.41,43.62 12.695,15.62 15.516,38.91 15.547,39.14 0.234,2.05 2.012,3.53 4.148,3.3 2.051,-0.24 3.535,-2.09 3.301,-4.15 -0.125,-1.04 -3.074,-25.66 -17.176,-43.02 -13.527,-16.66 -39.804,-43.07 -40.918,-44.18 -0.734,-0.74 -1.699,-1.11 -2.656,-1.11"
         style="fill:#231f20;fill-opacity:1;fill-rule:nonzero;stroke:none"
         id="path46" /><path
         d="m 1021.61,137.789 c -14.33,0 -27.571,3.191 -30.755,10.051 -0.773,1.672 -2.011,6.039 3.192,10.66 5.605,4.98 15.883,10.191 27.783,16.211 11.86,6 25.29,12.801 34.95,20.039 16.58,12.449 13.34,36.602 8.19,62.359 -3.03,15.18 -19.45,34.141 -35.32,52.481 -8.08,9.34 -15.72,18.172 -21.73,26.59 -9.135,12.769 -40.826,49.48 -74.381,88.351 -33.309,38.59 -67.762,78.5 -88.934,104.957 -34.367,42.961 -42.628,92.442 -49.921,136.082 -2.051,12.289 -3.985,23.91 -6.418,34.899 -11.532,52.179 -35.614,130.351 -52.422,177.402 -18.094,50.66 -14.922,89.047 -14.774,90.652 0.176,2.063 1.914,3.528 4.063,3.403 2.058,-0.184 3.582,-2 3.398,-4.067 -0.031,-0.375 -3.125,-38.453 14.383,-87.468 16.875,-47.27 41.074,-125.821 52.676,-178.301 2.473,-11.192 4.426,-22.891 6.496,-35.281 7.137,-42.739 15.223,-91.2 48.379,-132.629 21.082,-26.352 55.488,-66.211 88.758,-104.75 33.664,-39 65.467,-75.84 74.787,-88.891 5.82,-8.141 13.35,-16.84 21.32,-26.051 16.5,-19.066 33.57,-38.789 37,-55.906 4.51,-22.594 10.69,-53.523 -11.06,-69.832 -10.17,-7.629 -23.92,-14.59 -36.05,-20.73 -10.96,-5.551 -21.31,-10.79 -26.193,-15.122 -1.172,-1.046 -1.406,-1.707 -1.394,-1.816 0.008,-0.082 0.215,-0.512 1.015,-1.113 4.822,-3.68 19.552,-6.078 35.822,-3.778 25.05,3.579 58.9,17.731 78.77,32.918 1.48,1.141 3.59,1.012 4.92,-0.32 0.15,-0.16 15.35,-15.09 29.74,-9.937 12.8,4.57 16.41,69.808 2.47,118 -0.34,1.136 -0.1,2.378 0.63,3.32 4.74,6.18 16.63,25.34 9.36,32.25 -2.57,2.449 -9.14,7.976 -17.46,14.976 -28.04,23.602 -80.23,67.524 -98.93,93.723 -3.84,5.359 -8.16,11.32 -12.76,17.668 -23.95,32.992 -56.733,78.18 -67.007,104.723 -6.922,17.898 -13.621,62.867 -20.105,106.359 -4.903,32.848 -9.524,63.891 -13.653,78.859 -10.597,38.372 -27.695,63.04 -36.953,74.329 -1.308,1.601 -1.074,3.961 0.528,5.281 1.589,1.308 3.953,1.07 5.273,-0.52 9.629,-11.761 27.422,-37.39 38.379,-77.09 4.246,-15.421 8.906,-46.671 13.836,-79.761 6.125,-41.071 13.066,-87.629 19.687,-104.75 9.934,-25.637 42.385,-70.367 66.075,-103.028 4.62,-6.371 8.96,-12.339 12.79,-17.722 18.17,-25.418 69.88,-68.938 97.66,-92.328 8.75,-7.36 15.08,-12.68 17.81,-15.282 12.11,-11.519 -2.72,-34.187 -7.45,-40.73 11.85,-42.867 13.25,-117.879 -7.66,-125.34 -15.02,-5.391 -29.53,4.789 -35.13,9.5 -21,-15.141 -54.63,-28.93 -79.77,-32.519 -4.55,-0.649 -9.28,-0.981 -13.91,-0.981"
         style="fill:#231f20;fill-opacity:1;fill-rule:nonzero;stroke:none"
         id="path48" /><path
         d="m 1208.1,100.961 c -3.9,0 -7.55,1.129 -10.81,3.738 -9.43,7.551 2.05,23.781 15.34,42.582 8.62,12.168 18.37,25.957 19.33,34.09 2.14,18.18 1.65,75.777 -17.84,106.32 -5.9,-3.203 -18.4,-8.703 -28.03,-4.429 -6.32,2.808 -8.14,8.476 -10.07,14.476 -2.22,6.934 -4.99,15.543 -15.52,24.551 -1.57,1.352 -1.75,3.711 -0.41,5.293 1.35,1.59 3.7,1.75 5.3,0.406 12.13,-10.386 15.4,-20.539 17.78,-27.949 1.83,-5.73 2.86,-8.539 5.97,-9.918 7.32,-3.269 19.87,3.027 24.09,5.731 1.68,1.07 3.9,0.648 5.07,-0.961 22.66,-31.481 23.39,-94.871 21.1,-114.391 -1.17,-10.031 -11.07,-24.02 -20.65,-37.551 -7.73,-10.937 -20.69,-29.258 -16.77,-32.39 7.96,-6.411 23.69,1.98 46.67,24.961 18.51,18.519 38.69,63.32 38.88,63.769 0.75,1.66 2.6,2.551 4.34,2.109 6.69,-1.66 26.68,-4.519 30.52,3.922 5.1,11.2 -5.71,42.032 -19.01,63.789 -13,21.289 -42.84,64.282 -43.13,64.711 -0.94,1.34 -0.89,3.141 0.12,4.43 l 6.76,8.719 c -5.18,7.941 -23.5,35.64 -41.61,58.781 -8.07,10.32 -19.7,23.359 -32.01,37.18 -20.59,23.09 -43.92,49.269 -58.3,71.23 -20.39,31.129 -29.26,77.828 -38.64,127.27 -1.31,6.879 -2.62,13.781 -3.97,20.672 -10.16,51.98 -27.93,126.476 -43.19,181.168 -14.29,51.207 -29.89,125.96 -30.05,126.707 -0.42,2.035 0.88,4.015 2.91,4.441 2,0.402 4.01,-0.879 4.43,-2.906 0.16,-0.746 15.71,-75.266 29.94,-126.223 15.31,-54.867 33.13,-129.598 43.33,-181.75 1.34,-6.898 2.66,-13.82 3.97,-20.707 9.24,-48.691 17.97,-94.684 37.54,-124.562 14.08,-21.489 37.22,-47.45 57.63,-70.348 12.39,-13.91 24.1,-27.043 32.31,-37.551 21.5,-27.461 43.25,-61.23 43.47,-61.57 0.86,-1.34 0.78,-3.071 -0.2,-4.332 l -6.72,-8.641 c 6.37,-9.219 30.42,-44.18 41.82,-62.797 11.45,-18.742 26.84,-54.543 19.43,-70.82 -6.03,-13.262 -27.69,-10.422 -36.11,-8.762 -4.81,-10.347 -22.21,-46.289 -39.15,-63.23 -13.34,-13.34 -31.27,-29.258 -45.86,-29.258"
         style="fill:#231f20;fill-opacity:1;fill-rule:nonzero;stroke:none"
         id="path50" /><path
         d="m 1215.25,288.941 c -1.05,0 -2.08,0.438 -2.82,1.278 -1.37,1.562 -1.2,3.929 0.35,5.301 18.97,16.601 47.72,42.929 48.02,43.199 1.51,1.39 3.89,1.301 5.29,-0.231 1.4,-1.527 1.3,-3.898 -0.24,-5.297 -0.28,-0.261 -29.09,-26.66 -48.13,-43.32 -0.71,-0.621 -1.59,-0.93 -2.47,-0.93"
         style="fill:#231f20;fill-opacity:1;fill-rule:nonzero;stroke:none"
         id="path52" /><path
         d="m 1068.65,254.09 c -1.17,0 -2.33,0.551 -3.06,1.582 -1.2,1.687 -0.8,4.027 0.88,5.226 63.83,45.411 88.48,30.801 89.5,30.161 1.75,-1.11 2.28,-3.418 1.17,-5.168 -1.09,-1.743 -3.38,-2.262 -5.11,-1.211 -0.49,0.269 -22.74,11.718 -81.2,-29.891 -0.67,-0.469 -1.43,-0.699 -2.18,-0.699"
         style="fill:#231f20;fill-opacity:1;fill-rule:nonzero;stroke:none"
         id="path54" /><path
         d="m 197.32,1225.24 c -37.98,0 -77.355,7 -93.144,15.35 -10.0393,5.3 -14.5315,10.96 -13.3518,16.8 1.7969,8.87 16.6918,14.59 44.2698,17 40.613,3.55 111.25,0.05 111.953,0.01 2.07,-0.1 3.66,-1.86 3.562,-3.93 -0.105,-2.07 -1.796,-3.73 -3.933,-3.56 -0.703,0.05 -70.821,3.53 -110.938,0.01 -28.449,-2.49 -37.0114,-8.29 -37.5583,-11.01 -0.2461,-1.23 1.4726,-4.45 9.4923,-8.69 22.019,-11.65 96.414,-20.67 139.668,-9.01 2.051,0.52 4.062,-0.65 4.598,-2.64 0.539,-2 -0.645,-4.06 -2.645,-4.6 -15.012,-4.04 -33.332,-5.73 -51.973,-5.73"
         style="fill:#231f20;fill-opacity:1;fill-rule:nonzero;stroke:none"
         id="path56" /><path
         d="m 1385.39,1187.24 c -1.73,0 -3.28,1.19 -3.67,2.94 -0.45,2.03 0.83,4.03 2.86,4.47 16.13,3.56 30.86,20.63 34.58,25.21 -0.41,4.69 -0.95,18.25 5.48,26.37 7.89,9.95 23.81,10.35 48.74,1.2 16.2,-5.97 30.58,9.71 35.5,15.92 -28.73,28.98 -59.71,42.23 -75.95,32.3 -20,-12.22 -67.01,-48.86 -67.49,-49.23 -1.62,-1.26 -3.98,-0.99 -5.26,0.65 -1.27,1.63 -0.98,3.99 0.65,5.27 1.95,1.51 47.83,37.26 68.2,49.71 23.13,14.15 60.6,-7.78 87.48,-35.77 1.22,-1.27 1.39,-3.21 0.42,-4.67 -0.84,-1.25 -20.68,-30.58 -46.12,-21.23 -21.22,7.79 -34.75,8.18 -40.29,1.19 -4.74,-5.98 -4.32,-18.15 -3.76,-22.34 0.13,-0.96 -0.12,-1.96 -0.72,-2.75 -0.74,-1 -18.54,-24.46 -39.84,-29.15 -0.28,-0.06 -0.55,-0.09 -0.81,-0.09"
         style="fill:#231f20;fill-opacity:1;fill-rule:nonzero;stroke:none"
         id="path58" /><path
         d="m 2226.82,1260.31 c -0.99,0 -1.97,0.4 -2.68,1.14 -0.87,0.89 -86.76,89.64 -119.77,149.83 -5.02,2.2 -35.88,12.19 -98.69,-38.67 -23.77,-19.24 -28.68,-36.02 -28.73,-36.19 -0.56,-2 -2.69,-3.13 -4.6,-2.62 -1.99,0.55 -3.18,2.59 -2.64,4.59 0.22,0.77 5.39,19.13 31.24,40.04 73.55,59.51 106.8,39.71 108.16,38.84 0.54,-0.34 0.98,-0.82 1.3,-1.38 26.84,-49.62 91.53,-120.03 112.46,-142.24 -1.32,38.95 -8.65,142.14 -9.45,153.3 -4.53,7.6 -8,29.07 -8.67,33.48 -0.31,2.04 1.09,3.96 3.15,4.27 2.1,0.31 3.96,-1.09 4.27,-3.14 1.64,-10.73 5.19,-27.47 7.92,-31.12 0.43,-0.58 0.7,-1.27 0.74,-1.98 0.41,-5.54 9.74,-135.85 9.74,-164.4 0,-1.53 -0.93,-2.9 -2.34,-3.47 -0.45,-0.19 -0.93,-0.28 -1.41,-0.28"
         style="fill:#231f20;fill-opacity:1;fill-rule:nonzero;stroke:none"
         id="path60" /><path
         d="m 2458.75,1111.06 c -12.66,0 -25.25,1.35 -36.93,4.95 -44.55,13.74 -80,40.76 -108.37,82.61 -1.16,1.72 -0.71,4.05 1.01,5.21 1.7,1.15 4.04,0.72 5.2,-1 27.76,-40.94 60.92,-66.24 104.37,-79.65 30.57,-9.43 68.79,-2.32 96.7,2.86 18.22,3.4 31.39,5.84 38.72,3.5 0.55,-0.23 9.84,-4.34 35.32,-2.47 18.77,1.36 25.3,5.2 32.23,9.26 2.82,1.66 5.75,3.38 9.5,4.96 13.95,5.87 31.75,6.87 37.63,7.03 1.01,1.79 1,3.56 -0.01,5.4 -3.95,7.18 -24.72,17.41 -77.64,10.16 -28.45,-3.91 -95.09,-13.05 -158.47,5.51 -59.35,17.4 -69.98,77.16 -80.25,134.95 l -2.21,12.32 c -10.83,59.4 -29.36,70.66 -29.55,70.76 -1.78,1.02 -2.44,3.29 -1.44,5.08 0.98,1.8 3.2,2.48 5.01,1.52 0.87,-0.47 21.71,-12.15 33.36,-76.01 l 2.22,-12.36 c 10.32,-58.1 20.07,-112.97 74.97,-129.06 61.84,-18.12 127.37,-9.13 155.34,-5.29 53.16,7.29 78.86,-2.43 85.23,-13.96 2.76,-5.03 2.13,-10.55 -1.74,-15.15 -0.71,-0.84 -1.77,-1.33 -2.87,-1.33 -0.22,0 -21.49,-0.09 -36.67,-6.48 -3.29,-1.4 -5.88,-2.91 -8.62,-4.52 -7.36,-4.31 -14.96,-8.78 -35.47,-10.27 -27.49,-1.99 -37.57,2.49 -38.65,3 -5.05,1.58 -18.73,-0.98 -34.58,-3.92 -18.32,-3.4 -40.95,-7.61 -63.34,-7.61"
         style="fill:#231f20;fill-opacity:1;fill-rule:nonzero;stroke:none"
         id="path62" /><path
         d="m 2157.79,1156.18 c -1.4,0 -2.74,0.78 -3.38,2.12 -0.9,1.88 -0.11,4.11 1.76,5.01 0.49,0.23 48.54,23.67 48.54,57.17 0,2.07 1.68,3.75 3.75,3.75 2.07,0 3.75,-1.68 3.75,-3.75 0,-38.23 -50.64,-62.91 -52.8,-63.94 -0.53,-0.25 -1.08,-0.36 -1.62,-0.36"
         style="fill:#231f20;fill-opacity:1;fill-rule:nonzero;stroke:none"
         id="path64" /><path
         d="m 2007.75,136.719 c -19.78,0 -47.49,11.472 -66.42,24.84 -20.3,14.332 -63.96,17.441 -64.4,17.472 -1.44,0.098 -2.69,1.008 -3.22,2.34 -0.54,1.328 -0.27,2.859 0.7,3.918 0.15,0.172 14.94,16.59 26.65,40 11.53,23.07 31.38,86.449 38.73,130.539 4.38,26.231 16.22,47.524 27.67,68.113 8.24,14.809 16.01,28.809 21.12,44.379 6.68,20.36 9.71,40.801 9.74,41.012 0.29,2.039 2.19,3.438 4.24,3.168 2.05,-0.301 3.48,-2.199 3.18,-4.262 -0.13,-0.847 -3.15,-21.25 -10.03,-42.25 -5.33,-16.258 -13.65,-31.218 -21.7,-45.687 -11.13,-20.039 -22.66,-40.762 -26.82,-65.699 -7.58,-45.461 -27.42,-108.653 -39.43,-132.661 -8.17,-16.351 -17.59,-29.203 -23.11,-36.113 13.82,-1.539 44.04,-6.156 61.01,-18.148 15.15,-10.7 37.05,-20.301 54.09,-22.828 -14.2,7.578 -33.52,21.808 -38.5,44.687 -7.74,35.59 3,59.223 17.88,91.93 l 0.52,1.179 c 6.26,13.762 14.18,27.571 22.57,42.184 12.03,20.957 24.46,42.617 33.3,66.477 11.71,31.613 32.28,67.613 52.16,102.429 6.04,10.551 12,21 17.66,31.203 8.12,14.649 16.31,28.239 16.31,28.239 1.07,1.789 3.37,2.351 5.14,1.281 1.78,-1.07 2.35,-3.371 1.28,-5.152 -0.01,-0.02 -8.12,-13.489 -16.17,-28 -5.66,-10.227 -11.66,-20.719 -17.71,-31.289 -19.73,-34.551 -40.14,-70.282 -51.64,-101.321 -9.05,-24.429 -21.64,-46.379 -33.82,-67.597 -8.3,-14.461 -16.14,-28.122 -22.24,-41.563 l -0.54,-1.168 c -14.8,-32.57 -24.59,-54.082 -17.37,-87.242 7,-32.219 48.81,-45.891 49.23,-46.02 1.58,-0.5 2.64,-1.988 2.61,-3.648 -0.02,-1.66 -1.15,-3.102 -2.75,-3.539 -2.98,-0.82 -6.32,-1.203 -9.92,-1.203"
         style="fill:#231f20;fill-opacity:1;fill-rule:nonzero;stroke:none"
         id="path66" /><path
         d="m 1866.59,91.2813 c -5.3,0 -9.48,1.789 -12.43,5.3281 -6.85,8.1916 -5.7,24.1406 -1.85,45.5896 4.71,26.231 21.56,42.602 22.28,43.281 1.49,1.418 3.85,1.391 5.3,-0.121 1.43,-1.488 1.37,-3.859 -0.11,-5.289 -0.16,-0.16 -15.83,-15.461 -20.09,-39.199 -2.86,-15.961 -5.08,-33.121 0.22,-39.449 0.72,-0.871 1.9,-1.9415 4.19,-2.4103 3.55,9.0783 14.69,35.9293 24.52,42.9493 0.69,0.48 1.48,0.758 2.35,0.687 1.4,-0.058 34.54,-1.839 55.26,-23.867 18.54,-19.7302 83.45,-17.23 111.6,-10.422 5.09,1.243 5.84,2.512 5.84,2.532 -0.44,5.179 -28.78,18.14 -39.46,23.019 -3.38,1.551 -6.5,2.981 -9.16,4.238 -1.86,0.903 -2.65,3.141 -1.75,5 0.88,1.883 3.13,2.641 5,1.774 2.6,-1.25 5.7,-2.66 9.04,-4.192 26.2,-11.98 44.68,-21.199 43.77,-30.691 -0.62,-6.328 -8.82,-8.32 -11.53,-8.969 -25.63,-6.2184 -96.27,-11.4098 -118.82,12.578 -16.38,17.411 -42.54,20.832 -48.77,21.403 -7.85,-7.012 -18.36,-31.942 -21.89,-41.3401 -0.55,-1.4609 -1.95,-2.4296 -3.51,-2.4296"
         style="fill:#231f20;fill-opacity:1;fill-rule:nonzero;stroke:none"
         id="path68" /><path
         d="m 1744.07,254.09 c -1.71,0 -3.23,1.172 -3.65,2.859 -0.37,1.52 -9.18,37.539 -9.18,57.371 0,10.321 4.59,27.93 9.04,44.961 4.08,15.629 8.3,31.778 7.62,37.879 -1.37,12.32 -15.65,29.61 -15.8,29.781 -0.83,1 -1.08,2.36 -0.67,3.59 0.41,1.239 1.44,2.16 2.71,2.457 0.44,0.102 45.45,10.692 79.53,25.5 l 5.42,2.582 c 1.91,0.871 4.11,0.09 5,-1.781 0.89,-1.867 0.08,-4.109 -1.78,-5 l -5.54,-2.617 c -27.59,-12 -61.98,-21.231 -75.3,-24.602 4.78,-6.539 12.73,-18.781 13.89,-29.082 0.83,-7.476 -3.19,-22.828 -7.83,-40.597 -4.32,-16.582 -8.79,-33.711 -8.79,-43.071 0,-8.64 1.85,-20.89 3.86,-31.699 2.9,22.289 9.24,54.02 22.78,70.438 21.7,26.363 82.4,52.371 106.76,60.179 23.18,7.453 111.5,42.032 112.39,42.383 1.92,0.738 4.09,-0.191 4.86,-2.133 0.75,-1.918 -0.2,-4.097 -2.13,-4.847 -3.64,-1.43 -89.43,-35.02 -112.83,-42.532 -26.38,-8.468 -83.75,-34.121 -103.27,-57.82 -20.15,-24.457 -23.31,-89.961 -23.34,-90.609 -0.09,-1.871 -1.53,-3.391 -3.38,-3.571 -0.13,-0.007 -0.26,-0.019 -0.37,-0.019"
         style="fill:#231f20;fill-opacity:1;fill-rule:nonzero;stroke:none"
         id="path70" /><path
         d="m 1727.35,209.461 c -6.48,0 -11.79,7.449 -16.7,15.168 -10.6,16.641 -23.77,66.551 -13.94,91.09 6.8,16.953 15.41,44.601 19.16,56.953 l -23.84,-5.961 c -1.6,-0.43 -3.28,0.289 -4.12,1.711 -4.69,7.789 -11.73,34.277 -12.51,37.277 -0.43,1.61 0.26,3.313 1.68,4.172 22.88,13.719 55.54,22.711 56.92,23.09 2.02,0.539 4.06,-0.641 4.6,-2.633 0.55,-2 -0.63,-4.058 -2.63,-4.609 -0.31,-0.09 -30.72,-8.457 -52.59,-20.867 2.23,-8.161 6.57,-23.09 9.72,-30.153 l 27.36,6.852 c 1.31,0.32 2.69,-0.082 3.62,-1.051 0.93,-0.969 1.27,-2.359 0.89,-3.66 -0.12,-0.41 -12.26,-41.36 -21.3,-63.91 -8.53,-21.289 3.54,-68.942 13.31,-84.282 6.43,-10.117 9.42,-11.918 10.6,-11.66 1.12,0.231 6.96,3.332 12.78,41.422 0.31,2.051 2.13,3.488 4.27,3.141 2.05,-0.313 3.46,-2.231 3.15,-4.27 -6.07,-39.691 -12.55,-46.34 -18.64,-47.633 -0.61,-0.128 -1.21,-0.187 -1.79,-0.187"
         style="fill:#231f20;fill-opacity:1;fill-rule:nonzero;stroke:none"
         id="path72" /><path
         d="m 1744.75,1156.02 c -0.23,0 -0.47,0 -0.69,0 -83.29,0.32 -162.65,34.83 -175.33,40.6 -8.45,-4.44 -45.73,-22.65 -85.84,-18.99 -45.42,4.13 -62.51,38.01 -63.22,39.45 -0.91,1.86 -0.13,4.1 1.72,5.01 1.85,0.91 4.1,0.15 5.02,-1.7 0.64,-1.28 16.07,-31.56 57.16,-35.29 42.02,-3.81 82.77,18.76 83.17,18.98 1.09,0.6 2.37,0.64 3.47,0.12 0.84,-0.41 85.18,-40.34 173.87,-40.68 0.22,0 0.47,0 0.69,0 87.73,0 262.58,63.29 302.26,88.76 -6.83,12.41 -35.38,61.1 -72.9,80.54 -13.28,-13.63 -88.93,-88.43 -164.79,-103.09 -83.54,-16.14 -211.72,-6.81 -251.13,7.82 -0.62,0.23 -1.16,0.62 -1.58,1.13 -0.08,0.08 -9.97,11.28 -43.9,21.41 -1.98,0.59 -3.12,2.68 -2.52,4.66 0.6,1.98 2.65,3.11 4.67,2.52 31.6,-9.43 43.77,-19.97 46.76,-22.98 39.59,-14.18 164.46,-22.99 246.28,-7.19 79.36,15.33 161.86,102.01 162.69,102.88 1.11,1.19 2.87,1.52 4.35,0.81 46.5,-22.29 78.95,-85.35 80.31,-88.02 0.84,-1.65 0.35,-3.67 -1.15,-4.75 -34.13,-24.48 -218.22,-92 -309.37,-92"
         style="fill:#231f20;fill-opacity:1;fill-rule:nonzero;stroke:none"
         id="path74" /><path
         d="m 1844.51,451.98 c -35.48,0 -63.2,11.758 -76.75,33.418 -15.25,24.364 -10.46,57.59 13.11,91.161 42.33,60.281 94.19,180.91 135.86,277.839 8.13,18.911 15.94,37.082 23.32,53.985 21.39,48.972 54.95,95.407 84.55,136.367 33.83,46.82 63.05,87.25 61.92,114.87 -2.12,51.58 -36.94,88.48 -37.3,88.85 -1.43,1.49 -1.38,3.87 0.11,5.3 1.5,1.44 3.86,1.39 5.3,-0.11 1.52,-1.57 37.14,-39.23 39.39,-93.73 1.23,-30.22 -28.69,-71.63 -63.34,-119.57 -29.39,-40.661 -62.69,-86.743 -83.75,-134.977 -7.37,-16.891 -15.19,-35.055 -23.31,-53.942 -41.81,-97.25 -93.83,-218.269 -136.61,-279.191 -21.76,-30.988 -26.46,-61.191 -12.89,-82.871 15.46,-24.688 52.34,-34.988 98.57,-27.539 53.6,8.64 83.86,26.16 113.12,43.101 22.78,13.188 46.33,26.84 80.57,36.399 26.31,7.351 55.24,13.148 85.85,19.281 59.37,11.899 120.73,24.188 171.35,49.449 -7.2,36.641 -72.04,369.211 -68.68,445.4 2.19,49.59 25.45,89.54 44.14,121.64 11.88,20.43 22.15,38.07 25.08,53.99 2.4,13.04 -6.36,27.31 -15.64,42.42 -19.11,31.12 -42.89,69.86 16.92,120.06 4.09,3.43 3.12,5.36 2.66,6.29 -7.92,15.96 -87.67,29.8 -110.14,24.66 -2.01,-0.46 -4.02,0.81 -4.48,2.83 -0.46,2.02 0.8,4.03 2.82,4.48 23.8,5.44 108.34,-8.15 118.52,-28.63 1.51,-3.05 2.93,-9.08 -4.56,-15.37 -54.85,-46.05 -34.77,-78.77 -15.34,-110.4 10.05,-16.37 19.54,-31.83 16.62,-47.7 -3.17,-17.21 -13.74,-35.37 -25.99,-56.4 -19.22,-33.02 -41,-70.46 -43.11,-118.2 -3.45,-78.046 68.36,-442.742 69.09,-446.41 0.32,-1.652 -0.48,-3.308 -1.97,-4.07 -52.02,-26.59 -114.95,-39.199 -175.82,-51.398 -30.47,-6.102 -59.26,-11.871 -85.31,-19.153 -33.31,-9.3 -56.45,-22.699 -78.83,-35.66 -29.85,-17.289 -60.71,-35.16 -115.68,-44.008 -10.24,-1.652 -20.08,-2.461 -29.37,-2.461"
         style="fill:#231f20;fill-opacity:1;fill-rule:nonzero;stroke:none"
         id="path76" /><path
         d="m 2100.4,1592.31 c 33.42,0 46.01,-27.29 54.85,-46.45 l 2.14,-4.6 c 3.03,-6.4 5.32,-13.84 7.73,-21.71 6.48,-21.08 13.17,-42.87 35.19,-51.6 11.03,-4.37 25.56,-1.95 40.9,6.77 20.63,11.75 38.1,32.52 40.64,48.33 2.89,18.02 -6.62,23.05 -21.02,30.65 -6.06,3.2 -12.93,6.82 -19.42,11.92 -9.62,7.54 -13.96,18.84 -18.55,30.79 -6.1,15.84 -12.4,32.23 -32.01,41.13 -32.19,14.62 -63.25,0.94 -88.2,-10.04 l -4.64,-2.03 c -17.56,-7.65 -17.5,-27.26 -16.58,-35.7 6.98,1.75 13.27,2.54 18.97,2.54 z m 6.7,-181.96 c -2.06,0 -3.72,1.65 -3.74,3.72 -0.02,2.06 1.64,3.75 3.72,3.78 0.1,0 11.12,0.24 18.8,8.44 5.08,5.41 7.71,13.15 7.82,23.02 -10.69,-0.94 -39.34,-2.68 -52.07,3.78 -15.38,7.8 -29.47,35.57 -25.11,62.95 3.9,24.62 12.23,54.69 17.95,69.34 -2.42,12.79 -1.08,37.54 20.55,46.96 l 4.61,2.02 c 24.94,10.98 59.07,26.02 94.33,10.01 22.4,-10.17 29.57,-28.82 35.89,-45.27 4.22,-10.96 8.19,-21.31 16.19,-27.58 5.96,-4.68 12.23,-7.99 18.29,-11.19 14.75,-7.78 28.67,-15.13 24.92,-38.47 -2.9,-18.12 -21.55,-40.69 -44.34,-53.66 -17.37,-9.88 -34.19,-12.43 -47.36,-7.22 -25.38,10.06 -32.94,34.66 -39.6,56.37 -2.33,7.6 -4.54,14.78 -7.34,20.7 l -2.17,4.67 c -10.55,22.87 -23.68,51.2 -67.26,39.22 -5.56,-14.49 -13.49,-43.33 -17.26,-67.07 -3.73,-23.51 8.07,-48.48 21.1,-55.1 11.19,-5.67 41.27,-3.81 51.92,-2.61 1,0.12 2.06,-0.2 2.84,-0.87 0.79,-0.66 1.27,-1.63 1.32,-2.66 0.72,-13.95 -2.58,-24.9 -9.83,-32.56 -9.94,-10.52 -23.57,-10.71 -24.15,-10.72 -0.01,0 -0.01,0 -0.02,0"
         style="fill:#231f20;fill-opacity:1;fill-rule:nonzero;stroke:none"
         id="path78" /></g></g></svg>
